<?xml version="1.0" encoding="UTF-8"?><svg id="Layer_2" xmlns="http://www.w3.org/2000/svg" viewBox="0 0 300 133.12"><defs><style>.cls-1{fill:#1d1d1b;}.cls-1,.cls-2,.cls-3,.cls-4,.cls-5{stroke-width:0px;}.cls-2{fill:#e22524;}.cls-3{fill:#e10e1e;}.cls-4{fill:#e3332b;}.cls-5{fill:#e3352c;}</style></defs><path class="cls-1" d="m71,90.77c.42.59.74,1.29.98,2.12.24.83.35,1.75.35,2.75s-.12,1.93-.36,2.76-.57,1.53-1,2.11c-.41.57-.89,1.02-1.44,1.33s-1.13.47-1.75.47c-.66,0-1.27-.17-1.82-.5-.56-.33-1.04-.79-1.44-1.39-.4-.58-.71-1.29-.94-2.11s-.34-1.72-.34-2.66c0-1.04.12-1.96.36-2.77.24-.81.57-1.51.99-2.1.42-.59.9-1.04,1.46-1.35.55-.31,1.13-.47,1.74-.47s1.22.16,1.77.48c.56.32,1.04.76,1.44,1.34Zm-.99,9.03c.25-.54.43-1.16.54-1.85s.17-1.46.17-2.31-.06-1.68-.19-2.41c-.13-.73-.31-1.35-.56-1.87-.24-.51-.55-.91-.92-1.19-.37-.28-.79-.43-1.27-.43-.53,0-.99.16-1.36.49-.37.33-.68.77-.91,1.32-.22.53-.39,1.14-.5,1.85-.11.71-.16,1.45-.16,2.23,0,.86.06,1.64.17,2.33.12.69.3,1.31.55,1.85.24.53.54.94.91,1.23.36.3.8.44,1.31.44.48,0,.9-.15,1.29-.45.38-.3.69-.72.93-1.26Z"/><path class="cls-1" d="m86.15,102.1h-2.55c-.56-.77-1.07-1.43-1.53-2-.46-.56-.95-1.14-1.48-1.73h-.97v2.61c0,.14.02.25.07.36s.15.18.31.23c.08.03.22.05.42.08.2.02.37.04.51.04v.41h-4v-.41c.11,0,.26-.02.46-.04.2-.02.34-.04.42-.08.13-.05.23-.12.29-.22.06-.1.09-.22.09-.37v-5.95c0-.14-.02-.26-.07-.36s-.15-.18-.31-.24c-.11-.03-.26-.07-.43-.1-.18-.03-.33-.05-.45-.06v-.41h4.37c.4,0,.78.04,1.13.11.35.07.67.19.95.35.28.15.5.36.66.61.16.25.25.55.25.9,0,.32-.06.6-.17.84s-.28.45-.49.63c-.2.17-.44.31-.72.43-.28.12-.59.23-.93.31.47.54.85.99,1.16,1.36.31.37.69.81,1.14,1.34.2.23.37.4.53.51.16.11.31.2.47.27.12.05.26.09.43.12.17.03.32.04.43.05v.41Zm-3.51-6.13c0-.5-.16-.89-.49-1.18s-.79-.44-1.39-.44h-1.13v3.53h.87c.61,0,1.12-.17,1.53-.51.41-.34.61-.81.61-1.39Z"/><path class="cls-1" d="m94.07,102.1h-4.26v-.41c.12,0,.29-.02.52-.03.23-.02.39-.04.48-.07.15-.05.25-.12.32-.21.07-.09.1-.21.1-.36v-5.96c0-.14-.02-.25-.07-.34s-.16-.17-.35-.23c-.13-.05-.3-.09-.5-.13-.2-.04-.37-.06-.5-.07v-.41h4.26v.41c-.14,0-.3.02-.49.04-.19.03-.36.06-.5.1-.17.05-.28.12-.34.23-.06.1-.09.22-.09.35v5.96c0,.13.03.24.1.34s.17.18.33.23c.09.03.25.06.46.1s.39.06.54.06v.41Z"/><path class="cls-1" d="m106.62,99.68l-.18,2.42h-7.86v-.41c.13,0,.31-.02.53-.05.22-.02.37-.05.43-.08.14-.06.24-.13.3-.23s.08-.21.08-.35v-5.92c0-.13-.02-.24-.07-.34s-.15-.18-.31-.24c-.12-.05-.28-.09-.48-.13-.2-.04-.36-.06-.48-.07v-.41h7.32v1.98h-.5c-.09-.29-.28-.61-.58-.94-.3-.33-.58-.51-.84-.54-.14-.02-.3-.03-.49-.03-.19,0-.41-.01-.65-.01h-1.49v3.27h1.07c.34,0,.59-.03.75-.08.16-.06.3-.15.42-.28.1-.11.18-.26.25-.45.07-.19.11-.36.14-.53h.5v3.23h-.5c-.02-.19-.07-.38-.14-.59-.08-.21-.16-.36-.24-.45-.14-.15-.29-.25-.47-.3-.18-.05-.41-.07-.7-.07h-1.07v2.47c0,.25.02.44.06.58.04.14.12.25.23.32.12.07.27.12.47.14.2.02.48.03.85.03h.58c.24,0,.44,0,.61-.02.17-.02.34-.04.52-.08s.31-.1.38-.17c.2-.19.42-.47.64-.84s.37-.65.43-.83h.48Z"/><path class="cls-1" d="m120.72,94.28c-.12,0-.32.03-.57.09s-.44.12-.55.18c-.16.1-.27.28-.32.56s-.08.62-.08,1.04v6.03h-.58l-5.74-6.73v4.25c0,.48.03.84.1,1.1s.17.44.32.55c.1.08.31.16.63.24.32.07.53.11.63.12v.41h-3.88v-.41c.12,0,.32-.05.61-.11.28-.07.46-.13.53-.18.16-.11.26-.27.32-.5.06-.22.09-.6.09-1.14v-4.05c0-.18-.04-.36-.11-.53-.07-.18-.17-.32-.29-.41-.16-.13-.38-.24-.65-.33s-.49-.14-.66-.15v-.41h2.7l5.32,6.28v-3.92c0-.48-.04-.85-.11-1.1-.07-.26-.17-.43-.31-.51-.12-.07-.33-.15-.61-.21-.28-.07-.5-.11-.64-.12v-.41h3.85v.41Z"/><path class="cls-1" d="m132.59,96.1h-.46c-.04-.14-.11-.3-.22-.5-.1-.19-.22-.37-.35-.54-.13-.18-.28-.33-.44-.47-.16-.13-.31-.21-.46-.23-.14-.02-.31-.03-.52-.03s-.4-.01-.58-.01h-.39v6.58c0,.13.03.24.09.35.06.11.17.19.33.25.08.03.25.06.5.11.26.05.45.07.6.08v.41h-4.47v-.41c.12,0,.31-.02.57-.05.26-.02.43-.05.53-.09.15-.05.25-.12.32-.22s.1-.22.1-.38v-6.64h-.39c-.14,0-.31,0-.51,0s-.4.02-.59.04c-.15.02-.3.09-.46.23-.16.14-.3.29-.44.47-.13.17-.25.36-.35.55-.1.2-.17.36-.21.48h-.47v-2.23h8.25v2.23Z"/><path class="cls-1" d="m145.58,102.1h-3.93v-.41c.35-.02.63-.06.86-.12s.34-.13.34-.21c0-.03,0-.08-.01-.13s-.02-.09-.04-.13l-.78-1.84h-3.32c-.12.27-.23.51-.3.71-.08.2-.15.39-.21.56-.06.17-.1.3-.12.41-.02.1-.03.19-.03.26,0,.15.14.27.42.36.28.08.6.14.95.15v.41h-3.56v-.41c.12,0,.26-.03.43-.07s.32-.09.43-.15c.18-.1.32-.21.41-.33.1-.11.19-.27.29-.47.48-1.03,1-2.19,1.57-3.48.57-1.29,1.08-2.43,1.53-3.44h.53l3.15,7.1c.07.15.14.27.23.37s.2.18.35.27c.1.05.24.1.4.14s.3.06.41.06v.41Zm-3.81-3.36l-1.43-3.19-1.41,3.19h2.85Z"/><path class="cls-1" d="m156.94,99.65l-.2,2.45h-7.4v-.41c.11,0,.26-.02.46-.04.2-.02.34-.04.42-.08.13-.05.23-.12.29-.22.06-.1.09-.22.09-.37v-5.89c0-.13-.03-.25-.08-.35-.05-.1-.15-.18-.3-.24-.1-.05-.25-.09-.43-.14s-.34-.07-.46-.08v-.41h3.99v.41c-.12,0-.29.02-.48.06-.2.03-.34.07-.43.09-.15.05-.25.13-.31.24-.06.11-.08.23-.08.36v5.53c0,.26.01.45.04.59.03.14.1.25.2.33.1.07.25.12.46.14.2.02.49.03.85.03.16,0,.34,0,.51-.01.18,0,.35-.02.51-.05.16-.02.3-.06.43-.1.13-.04.23-.09.29-.15.18-.18.39-.45.64-.81.24-.36.41-.65.5-.88h.47Z"/><path class="cls-1" d="m171.87,102.3c-.56,0-1.11-.15-1.62-.45-.52-.3-.98-.73-1.38-1.29-.4-.56-.71-1.25-.95-2.06s-.35-1.73-.35-2.74.12-1.94.35-2.77c.23-.83.55-1.54.96-2.14.4-.59.88-1.05,1.43-1.37s1.14-.49,1.77-.49c.47,0,.89.08,1.27.23s.74.37,1.08.66l.27-.61h.53l.06,4.54h-.55c-.07-.44-.18-.92-.32-1.44-.14-.52-.31-.96-.5-1.31-.21-.41-.47-.73-.76-.96-.29-.23-.63-.35-1.01-.35-.43,0-.83.13-1.2.39-.37.26-.69.64-.96,1.14-.26.49-.46,1.1-.61,1.85s-.22,1.58-.22,2.51c0,.81.08,1.56.23,2.24.15.68.37,1.28.66,1.79.28.51.62.91,1.01,1.2.39.29.82.43,1.3.43.36,0,.69-.08.99-.23.3-.15.56-.35.79-.61.22-.26.42-.56.59-.9.17-.33.31-.7.41-1.09l.5.32c-.38,1.26-.89,2.16-1.52,2.71-.63.54-1.38.81-2.25.81Z"/><path class="cls-1" d="m189.46,94.28c-.12,0-.31.03-.55.07-.24.04-.44.11-.59.19-.15.09-.26.27-.31.55s-.09.62-.09,1.02v3.58c0,.46-.11.85-.33,1.19s-.5.61-.86.83c-.35.21-.72.36-1.11.45-.39.09-.76.14-1.12.14-.57,0-1.08-.06-1.52-.19-.45-.13-.82-.3-1.12-.52-.3-.22-.52-.47-.67-.76-.15-.28-.23-.58-.23-.89v-4.87c0-.14-.03-.25-.08-.34s-.15-.17-.31-.25c-.11-.05-.25-.1-.43-.13-.17-.03-.32-.05-.43-.06v-.41h3.94v.41c-.12,0-.28.02-.47.05-.19.03-.33.06-.42.09-.15.05-.25.12-.3.23-.05.11-.08.23-.08.35v4.54c0,.22.03.45.08.69.06.24.17.47.33.68.17.21.41.39.71.52s.71.2,1.23.2c.49,0,.9-.07,1.23-.2.33-.14.59-.31.78-.53.18-.21.31-.43.39-.66s.11-.46.11-.69v-3.37c0-.43-.04-.78-.11-1.05s-.18-.45-.31-.54c-.16-.1-.37-.17-.64-.23-.27-.05-.47-.08-.62-.09v-.41h3.87v.41Z"/><path class="cls-1" d="m197.77,102.1h-4.26v-.41c.12,0,.29-.02.52-.03.23-.02.39-.04.48-.07.15-.05.25-.12.32-.21.07-.09.1-.21.1-.36v-5.96c0-.14-.02-.25-.07-.34s-.17-.17-.35-.23c-.13-.05-.3-.09-.5-.13-.2-.04-.37-.06-.5-.07v-.41h4.26v.41c-.14,0-.3.02-.49.04-.19.03-.36.06-.5.1-.17.05-.28.12-.34.23-.06.1-.09.22-.09.35v5.96c0,.13.03.24.1.34s.17.18.33.23c.09.03.25.06.46.1.21.04.39.06.54.06v.41Z"/><path class="cls-1" d="m208.26,98.33c.2.19.35.41.44.64.1.23.14.5.14.8,0,.73-.31,1.33-.93,1.8-.62.47-1.38.71-2.3.71-.42,0-.84-.06-1.27-.17-.42-.11-.79-.25-1.09-.41l-.29.42h-.53l-.09-2.82h.54c.11.35.24.66.39.94.15.28.35.54.59.79.23.23.5.41.81.55.31.14.67.2,1.08.2.31,0,.57-.03.8-.1.23-.07.41-.17.56-.3.14-.13.25-.28.32-.45s.1-.37.1-.6c0-.33-.11-.64-.32-.92-.21-.28-.53-.5-.95-.65-.29-.1-.62-.21-.99-.33-.37-.12-.7-.24-.97-.34-.53-.21-.95-.48-1.24-.82-.3-.34-.44-.78-.44-1.33,0-.31.07-.6.22-.88.15-.27.36-.51.63-.72.26-.2.56-.36.91-.47.35-.11.72-.17,1.1-.17.44,0,.83.06,1.17.17.34.12.66.25.94.41l.27-.39h.53l.05,2.73h-.54c-.1-.31-.21-.61-.33-.9-.12-.29-.28-.55-.48-.78-.19-.22-.42-.4-.7-.54-.28-.13-.61-.2-1.01-.2-.42,0-.78.12-1.08.35-.3.24-.45.52-.45.86s.1.65.29.88c.19.23.47.43.83.58.33.14.64.25.96.35s.62.2.91.32c.27.1.52.21.77.34.25.13.46.28.64.45Z"/><path class="cls-1" d="m217.58,102.1h-4.26v-.41c.12,0,.29-.02.52-.03.23-.02.39-.04.48-.07.15-.05.25-.12.32-.21.07-.09.1-.21.1-.36v-5.96c0-.14-.02-.25-.07-.34s-.17-.17-.35-.23c-.13-.05-.3-.09-.5-.13-.2-.04-.37-.06-.5-.07v-.41h4.26v.41c-.14,0-.3.02-.49.04-.19.03-.36.06-.5.1-.17.05-.28.12-.34.23-.06.1-.09.22-.09.35v5.96c0,.13.03.24.1.34s.17.18.33.23c.09.03.25.06.46.1.21.04.39.06.54.06v.41Z"/><path class="cls-1" d="m231.9,94.28c-.12,0-.32.03-.57.09s-.44.12-.55.18c-.16.1-.27.28-.32.56s-.08.62-.08,1.04v6.03h-.58l-5.74-6.73v4.25c0,.48.03.84.1,1.1.07.26.17.44.32.55.1.08.31.16.63.24.32.07.53.11.63.12v.41h-3.88v-.41c.12,0,.32-.05.61-.11.29-.07.46-.13.53-.18.16-.11.26-.27.32-.5.06-.22.09-.6.09-1.14v-4.05c0-.18-.04-.36-.11-.53-.07-.18-.17-.32-.29-.41-.16-.13-.38-.24-.65-.33s-.49-.14-.66-.15v-.41h2.7l5.32,6.28v-3.92c0-.48-.04-.85-.11-1.1-.07-.26-.17-.43-.31-.51-.12-.07-.33-.15-.61-.21-.28-.07-.5-.11-.64-.12v-.41h3.85v.41Z"/><path class="cls-1" d="m244.03,99.68l-.18,2.42h-7.86v-.41c.13,0,.31-.02.53-.05.22-.02.37-.05.43-.08.14-.06.24-.13.3-.23s.08-.21.08-.35v-5.92c0-.13-.02-.24-.07-.34s-.15-.18-.31-.24c-.12-.05-.28-.09-.48-.13-.2-.04-.36-.06-.48-.07v-.41h7.32v1.98h-.5c-.09-.29-.28-.61-.58-.94-.3-.33-.58-.51-.84-.54-.14-.02-.3-.03-.49-.03-.19,0-.41-.01-.65-.01h-1.49v3.27h1.07c.34,0,.59-.03.75-.08.16-.06.3-.15.42-.28.1-.11.18-.26.25-.45.07-.19.11-.36.14-.53h.5v3.23h-.5c-.02-.19-.07-.38-.14-.59-.08-.21-.16-.36-.24-.45-.14-.15-.29-.25-.47-.3-.18-.05-.41-.07-.7-.07h-1.07v2.47c0,.25.02.44.06.58.04.14.12.25.23.32.12.07.27.12.47.14.2.02.48.03.85.03h.58c.24,0,.44,0,.61-.02.17-.02.34-.04.52-.08.18-.04.31-.1.38-.17.21-.19.42-.47.64-.84s.37-.65.43-.83h.48Z"/><path class="cls-4" d="m256.83,53.7c-.28,1.03.16,2.82-1.72,2.11-1.36-.52-3.58-.52-3.53-2.66.03-1.19.79-3.14,1.99-2.97,1.61.23,3.42,1.27,3.26,3.51Z"/><path class="cls-5" d="m143.11,54.58c-.34,1.12-.21,2.86-1.92,2.09-1.3-.59-3.55-.67-3.4-2.77.08-1.14.68-3.09,2.11-2.85,1.64.28,3.41,1.33,3.22,3.53Z"/><path class="cls-2" d="m248.38,56.94c-1.2-.78-3.4-.66-3.5-2.73-.06-1.18.54-3.05,1.89-2.92,1.78.18,3.37,1.38,3.1,3.69-.1.89.3,2.13-1.49,1.96Z"/><path class="cls-3" d="m276.26,66.05c-1.01-1.85-2.17.16-3.22.59-7.58,3.1-15.1,5.2-22.48-.53-1.06-.82-2.36-.81-3.62-.39,2.39-3.86-.75-5.21-3.37-6.39-4.05-1.82-7.52-.39-8.96,3.36-.68,1.76-.52,3.88-2.95,4.69-4.04,1.35-8.04,2.59-12.6,2.02.94-2.61,3.31-4.77.87-7.46-2.28-2.52-5.1-2.77-8.19-2.24-3.4.58-6.16,2.38-8.69,4.54-4.93,4.23-10.77,5.33-17.57,5.36,1.44-2.75,3.61-5.19,1.05-7.89-2.81-2.96-6.3-2.57-9.73-1.64-2.93.79-5.22,2.79-7.59,4.61-4.94,3.79-10.61,5.38-16.77,4.82-3.7-.34-7.19-1.5-9-5.23-.47-.96-.17-2.62-1.8-2.51-2.04.13-1.39,1.83-1.43,3.05-.03.93-.52,1.47-1.31,1.89-4.8,2.56-9.74,3.08-14.83.99-1.41-.58-2.94-1.63-2.66-3.22.85-4.83-1.98-4.54-5.25-4.23-2.19.21-4.23-.58-6.08-1.81-.87-.58-1.89-.96-2.62.06-.65.9-.32,1.94.39,2.71.55.59,1.25,1.08,1.95,1.51,2.43,1.49,2.54,2.98-.14,4.17-5.23,2.33-10.73,3.97-16.33,1.96-3.39-1.22-7.28-1.99-8.81-6.47-1.04-3.03-4.39-3.8-7.55-3.63-3.06.16-4.8,1.99-5.37,4.91-.18.95-.06,1.91-.88,2.72-4.94,4.89-16.41,3.79-20.35-1.99-.46-.67-.81-1.52-1.81-1.46-1.23.08-1.53,1.08-1.76,2.05-.15.64-.09,1.34-.32,1.95-.58,1.53-1.06,3.43-2.97,3.59-2.24.19-3.43-1.74-4.68-3.23-1.5-1.79.46-2.6,1.27-3.61,3.38-4.2,5.64-8.9,6.56-14.2,2.55-14.83-1.37-28.02-10.43-39.83-1.19-1.55-2.72-2.93-4.33-4.03-5.48-3.74-10.39-2.01-12.26,4.32-.55,1.87-.89,3.87-.87,5.81.2,18.74,6.06,35.85,15.45,51.89.99,1.69,2.27,3.28,3.68,4.63,3.32,3.18,6.15,3.16,8.71-.52,1.63-2.35,2.4-2.22,4.36-.47,2.45,2.21,5.63,2.64,8.89,2.01,3.28-.63,6.42-1.71,9.3-3.35,1.96-1.12,3.21-1.28,4.99.63,2.84,3.06,6.52,3.91,10.3,1.49,1.22-.78,1.97-1.06,3.47-.44,8.79,3.65,20.58.78,26.92-6.49.77-.88,1.41-1.27,2.46-1.12,1.14.17.98,1.13,1.05,1.9.5,5.03,3.95,6.41,8.33,6.6,4.25.19,8.19-1.01,11.94-2.86,1.36-.67,2.39-1.49,3.89.03,3.16,3.23,7.26,3.41,11.53,3.22,6.93-.31,12.65-3.42,18.18-7.12,1.87-.56,3.83-.66,5.71-1.15,1.12-.29,2.29-.37,3.25.48.4.35.45.91.07,1.3-.99,1.02-2.09.47-3.18.16-1.65-.48-3.37-1.66-4.79.44.99,5.19,4.72,7.16,12.17,6.45,7.52-.71,14.24-3.49,20.34-7.83,2.16-.11,4.19-.87,6.29-1.21,1.18-.19,2.63,0,2.49,1.55-.12,1.32-1.48,1.01-2.43.82-1.72-.33-3.4-1.6-5.17-.16-.99,3.57.99,5.22,4.06,6.06,7.1,1.93,13.81.18,20.27-2.58,2.32-.99,3.72-1.55,5.82.73,2.64,2.87,6.26,3.5,9.92,1.28.91-.55,1.49-1.6,2.99-.79,8.57,4.61,16.33.94,24.01-2.64,1.02-.48,3.03-1.18,2.22-2.67Zm-241.05-4.33c-7.15-13.83-12.92-28.1-13.9-43.83-.21-3.37-.69-7.61,3.19-9.1,3.96-1.53,6.87,1.66,9.23,4.4,7.15,8.31,10.54,18.08,10.93,26.98.05,9.08-1.7,15.62-6.03,21.39-1.1,1.46-2.08,2.79-3.43.17Zm46,8.42c-2.14-.15-6.88-4.93-6.62-6.74.23-1.61,1.49-1.52,2.65-1.47,1.9.07,7.17,3.86,7.11,5.11-.68,1.36-.81,3.28-3.13,3.11Zm161.95-1.87c-1.79-.84-3.49-2.16-3.74-4.59,2.95-.45,4.4,2.92,7.08,2.3-1.06.92-1.3,3.24-3.33,2.29Z"/></svg>