<?xml version="1.0" encoding="utf-8"?>
<!-- Generator: Adobe Illustrator 28.1.0, SVG Export Plug-In . SVG Version: 6.00 Build 0)  -->
<svg version="1.1" id="Layer_1" xmlns="http://www.w3.org/2000/svg" xmlns:xlink="http://www.w3.org/1999/xlink" x="0px" y="0px"
	 viewBox="0 0 1200 1200" style="enable-background:new 0 0 1200 1200;" xml:space="preserve">
<style type="text/css">
	.st0{fill:#000000;}
</style>
<g>
	<path class="st0" d="M1170.8,589.3c-1.1-6-4.4-11.7-7.5-17.2c-2.1-3.7-5.1-7.1-8.4-10.1c-3.5-3.2-0.4-8.6-2.8-12.5
		c-0.8-1.3-1.3-2.7-2.3-3.7c-4.3-4.4-4.4-9.1-2.8-14.9c2-7.1,0.4-13.6-6.8-17.6c-0.9-0.5-2.2-0.8-2.5-1.5
		c-3.7-9.6-12.6-13.2-20.5-18c-1.2-0.7-2.7-1.5-3.4-2.6c-5-7.2-11.5-13.8-14.5-21.8c-3.9-10.2-10.4-18.2-17.9-25.2
		c2.6-7.3,0.7-14.6-0.4-21.5c-1-6.2-2-12.4-2.5-18.6c-1.1-12-6-22.8-12.9-32.2c-6.4-8.7-12.8-17.4-17.8-26.9
		c-5.1-9.8-15.4-14.8-21.1-24c-0.7-1.1-2.5-2.1-3.8-2.1c-7.2,0.1-11.4-5-16.5-8.7c-4.1-3-8.9-4.6-13.7-5.2
		c-5.5-0.6-10.4-2.6-15.6-3.9c-7.1-1.8-14.2-4.3-21.4-4.9c-10.5-0.9-21.2-3.1-31.2,3.4c-3.1,2-7.5,2.2-11.3,0
		c-1.7-1-3.6-2.6-5.2-2.4c-9.2,1.2-19,2.1-26.6,7.2c-6,4.1-11,7.8-18.5,5.3c-1.3-0.4-3.4-0.6-4.3,0.1c-4.9,4.4-9.8,2.3-14.9,0.7
		c-0.8-0.2-1.8-0.3-2.8,0c-12.5-4.4-24.7-9.6-35.9-17.2c-1.6-1.1-3.6-1.5-5.4-2.2c-4.5-1.7-9.1-3.3-13.6-5
		c-2.1-6.4-8.7-3.1-12.2-5.7c-5.7-4.3-11.6-4.6-18.1-4.6c-0.6-1.5-1.6-2.9-3.1-4.3c-2.5-2.3-4.4-5.3-7-7.6
		c-6.1-5.4-10.1-12.7-11.8-19.9c-1.5-6.4-5.4-9-9.4-12.1c-3.4-2.7-8.4-3.9-10.2-8.1c-3.2-7.2-9.8-11.1-15.4-15.3
		c-5-3.8-10-7.5-14.8-11.6c-9.2-7.9-20.2-12.1-31.7-14.1c-10.7-1.8-21.3-3.6-31.5-6.9c-10.5-3.5-21.4,0.1-31.8-2.5
		c-1.2-0.3-3.3,0.3-4.2,1.2c-5.1,5.1-11.7,4.4-17.9,5.3c-5,0.7-9.6,2.8-13.4,5.8c-4.3,3.4-9.3,5.4-13.9,8.1
		c-3.9,2.3-7.9,4.3-11.7,6.6c-3.1-1.3-6.1-2.7-9-4.2c-9.9-5-16.8-1.6-24,4.3c-1.9,1.5-3.5,3.4-5.5,5.4c-2.8,1.7-4.9,4.1-6.8,6.9
		c-2.1-1.3-4.2-2.8-6-4.7c-5.4-5.4-12.3-5.6-19-1.5c-1.7,1-3.6,1.8-4.9,3.1c-3.1,3.2-6.7,3.6-10.8,3.4c-3.9-0.2-7.9-0.6-11.7,0
		c-4.5,0.8-8-0.5-10.3-3.9c-3.3-4.8-7.9-5.3-13-5.2c-2.5,0-4.9,0.1-7.4-0.2c-7.7-1-13.3,2.6-18.1,7.9c-1.7,1.8-2.8,4-4.4,5.9
		c-4.8,5.5-10.4,8.9-18.1,7.5c-2.9-0.5-6-0.2-8.7-1.2c-9.8-3.5-17.3,0.6-24.1,6.9c-2.9,2.7-5.2,5.9-7.6,9
		c-6.2,8.2-12.3,16.2-22.7,19.9c-4.8,1.7-9.8,5.4-12.7,9.5c-3.5,5-5.2,11.4-6.8,17.5c-1.1,4.2-1.4,8.6-1.2,13.1
		c0.2,4.7-5.8,6.4-6.9,10.9c-0.3,1.4-1,2.9-1,4.3c-0.1,6.1-3.3,9.6-8.5,12.5c-6.5,3.6-9.9,9.4-7.6,17.2c0.3,0.9,1,2.1,0.7,2.8
		c-4.1,9.4-0.5,18.3,1.8,27.2c0.4,1.4,0.8,2.9,0.6,4.3c-1.5,8.6-1.7,17.9-5.1,25.7c-3.1,7-4.6,14.1-5,21.2c-3.9,1-7.4,2.9-10,7.1
		c-1.6,2.6-5.4,5-8.4,5.3c-6.4,0.6-12.1,3.5-18.6,4c-8.1,0.6-16.1,3.7-24,6.1c-2.2,0.7-5.3,2.4-5.7,4.2c-1.2,5.9-5.9,5.9-10,7
		c-6.4,1.7-13.8,1-17.6,8.3c-0.4,0.7-1.7,1.1-2.7,1.1c-10.8,0.5-20.1,7.2-31.1,7c-7.7-0.1-12.7,4.6-14.7,12.1
		c-0.5,1.9-1.4,3.8-1.4,5.7c0,4.4-2.3,7.3-5.4,10c-3,2.6-6.2,5.1-8.4,8.2c-2.7,3.7-6,5.2-10.1,4.4c-5.7-1.2-9.4,1.7-13,5.3
		c-1.7,1.7-3.5,3.5-5.5,5c-6.2,4.6-7.7,11.1-7.5,18.3c0.1,2.4,0.8,4.9,1,7.3c0.4,7.3-1.3,13.6-7.7,18c-2.4,1.7-4.5,4-7.1,5.2
		c-9.5,4.3-12,12.5-12.4,21.7c-0.2,3.9,0.4,7.9,0.9,11.8c1.3,10.2,2.4,20.1-2.4,30.1c-2.2,4.6-3.3,10.7-2.5,15.7
		c1,6,4.3,11.8,7.3,17.3c2.1,3.8,5,7.2,8.3,10.3c3.5,3.2,0.3,8.6,2.6,12.6c0.8,1.3,1.3,2.7,2.3,3.8c4.2,4.4,4.3,9.2,2.6,14.9
		c-2.1,7.1-0.6,13.6,6.5,17.7c0.8,0.5,2.2,0.8,2.4,1.5c3.6,9.6,12.4,13.4,20.3,18.3c1.2,0.8,2.6,1.5,3.4,2.7
		c4.9,7.2,11.3,14,14.2,22c5,13.7,14.5,23.4,25.1,32.1c7.7,6.4,13.6,14.1,17.2,22.7c4.7,11.2,12.4,18.4,22,24.6
		c4.5,2.9,8.4,6.7,13.8,7.9c6.3,7.9,15.2,9.8,24.6,11.7c5,1.1,12.2,1.7,13.5,9.5c0.2,1.1,2.1,2.6,3.3,2.6
		c10.6,0.1,16.6,12.3,27.9,10.8c1.3-0.2,3.3,2,4.3,3.6c2.6,4.1,7.8,4,10.7,7.5c3.1,3.7,5.9,8.6,12,4.4c0,0,0.9,1.3,1.5,2
		c4.3,4.8,9.6,7.1,16.1,7.4c5.4,0.3,11.7-2.9,15.8,0.4c4.9,4.1,10.3,1.9,15.1,3.7c23.3,8.8,47.9,14.7,68.7,29.3
		c1.6,1.1,3.6,1.6,5.4,2.3c4.5,1.7,9,3.4,13.5,5.2c2,6.4,8.7,3.2,12.1,5.9c6,4.7,12.3,4.8,19.4,4.9c2.9,0,5.7,0.4,8.3,1.1
		c-0.2,3,1.2,5.5,3.7,7.7c2.6,2.3,4.5,5.2,7.1,7.5c6.2,5.3,10.3,12.6,12,19.7c1.5,6.4,5.6,8.9,9.6,12c3.4,2.7,8.5,3.8,10.4,7.9
		c3.3,7.2,9.9,10.9,15.6,15.1c5.1,3.7,10.2,7.4,15,11.4c9.3,7.7,20.4,11.8,31.9,13.6c10.7,1.7,21.4,3.2,31.6,6.5
		c10.6,3.3,21.4-0.4,31.9,2c1.3,0.3,3.3-0.3,4.1-1.2c5-5.2,11.6-4.6,17.8-5.5c5-0.8,9.5-3,13.3-6c4.3-3.4,9.2-5.5,13.8-8.3
		c1.4-0.8,2.8-1.7,4.3-2.5c1.3,0.7,2.7,1.3,4,2c9.8,5.1,16.8,1.8,24-3.9c1.9-1.5,3.5-3.4,5.6-5.3c4-2.4,6.9-6.3,9.4-10.6
		c4.5-7.9,11.2-14.7,12.3-24.4c0.2-2.2,2.4-4.2,3.7-6.3c1.3-2.1,2.8-4.1,3.9-6.3c2.1-4.2,2.4-7.4-2-11c0.1-0.6,0.3-1.1,0.4-1.7
		c1.4-7.2,2.2-13.3,9.3-16.8c1.2-0.6,2.8-2,2.9-3.1c0.4-6.6,5.3-8.5,10.1-11.1c1.6-0.9,3.5-3.4,1.7-4.8c-5.6-4.7-4.4-8.5,0.7-12.3
		c0.2-0.2,0-0.9-0.1-1.4c-1-6.5,0.9-11.4,7.2-14.3c1.3-0.6,2.8-1.8,3.1-3c1.5-6,5.5-10.3,9.2-15c2.6-3.3,3.1-7.1,1.8-11.1
		c-2.9-8.8-0.3-17.3,4.9-23.6c5.6-6.6,5.9-12.8,4.6-20.4c-1.6-9.7,5.8-18.7,2.8-28.8c-0.2-0.8,0.5-1.8,0.9-2.8
		c0.2-0.4,0.4-0.9,0.8-1.2c1-1.1,1.7-2.2,2.4-3.5c4.8-3.6,10-6.3,17.3-9c0.9-0.3,1.8-0.7,2.6-1.2c3.1,1.4,6.1,3,8.5,5.7
		c1.3,1.4,2.8,2.4,4.9,2.9c8.7,2,18.5,1.3,25.2,9.1c9-0.7,16.8,4.3,25.9,4.5c11.2,0.2,22.4,0.3,33.6-0.7c13.1-1.1,26.2-2.2,39.3-3.4
		c6.8-0.6,13.5-1.4,17.7-8.4c1.6-2.6,5.3-5.1,8.3-5.4c6.4-0.7,12-3.7,18.5-4.2c8.1-0.7,16-3.9,23.9-6.4c2.2-0.7,5.3-2.5,5.6-4.2
		c1.1-5.9,5.8-6,9.9-7.2c6.3-1.8,13.8-1.2,17.5-8.5c0.3-0.7,1.7-1.1,2.7-1.1c10.8-0.7,19.9-7.5,31-7.4c7.7,0,12.6-4.7,14.5-12.3
		c0.5-1.9,1.3-3.8,1.3-5.7c-0.1-4.4,2.2-7.3,5.2-10c2.9-2.6,6.1-5.2,8.3-8.3c2.6-3.8,6-5.3,10-4.5c5.7,1.1,9.3-1.8,12.9-5.5
		c1.7-1.8,3.4-3.6,5.4-5c6.2-4.7,7.5-11.2,7.3-18.4c-0.1-2.4-0.9-4.8-1.1-7.3c-0.5-7.3,1.1-13.7,7.5-18.1c2.4-1.7,4.4-4.1,7-5.3
		c9.4-4.5,11.8-12.7,12.1-21.9c0.1-3.9-0.5-7.8-1.1-11.7c-1.4-10.2-2.7-20.1,2-30.1C1170.8,600.4,1171.8,594.3,1170.8,589.3z"/>
	<path class="st0" d="M1074.7,382.6c0,1.6,0,3.2,0,4.9C1074.7,385.8,1074.7,384.2,1074.7,382.6z"/>
</g>
</svg>
