<svg version="1.1" id="Layer_1" xmlns="http://www.w3.org/2000/svg" xmlns:xlink="http://www.w3.org/1999/xlink" x="0px" y="0px" width="1200px" height="1200px" viewBox="0 0 1200 1200" enable-background="new 0 0 1200 1200" xml:space="preserve">
<path fill="#575756" d="M934.636,324.011C865.681,50,599.811,50,599.811,50v0.75c-23.571,0.566-267.478,12.132-334.311,272.436&#10;&#9;c0,0-18.665,99.462,37.625,227.548c0,0,66.394,126.163,78.62,142.414c0,0,176.194,261.879,214.04,456.853&#10;&#9;c38.431-194.828,221.142-456.651,221.142-456.651c12.226-16.18,79.205-142.05,79.205-142.05&#10;&#9;C953.012,423.435,934.636,324.011,934.636,324.011z M603.837,495.377c-58.854,0-106.505-47.711-106.505-106.64&#10;&#9;c0-58.854,47.651-106.523,106.505-106.523c58.857,0,106.658,47.67,106.658,106.523C710.495,447.666,662.694,495.377,603.837,495.377&#10;&#9;z" style="fill: rgb(225, 14, 30);"/>
</svg>